<svg width="25" height="24" viewBox="0 0 25 24" fill="none" xmlns="http://www.w3.org/2000/svg">
<path fill-rule="evenodd" clip-rule="evenodd" d="M13.2046 4.25632C14.3299 3.13054 15.8564 2.49805 17.4482 2.49805C19.0399 2.49805 20.5664 3.13051 21.6916 4.25624C22.8174 5.38152 23.45 6.90816 23.45 8.49987C23.45 10.0916 22.8175 11.6181 21.6917 12.7434C21.6917 12.7435 21.6917 12.7434 21.6917 12.7434L12.8517 21.5834C12.6565 21.7787 12.3399 21.7787 12.1446 21.5834L3.30461 12.7434C0.960963 10.3998 0.960963 6.59997 3.30461 4.25632C5.64826 1.91267 9.44807 1.91267 11.7917 4.25632L12.4982 4.96277L13.2046 4.25632C13.2046 4.25629 13.2046 4.25635 13.2046 4.25632ZM17.4482 3.49805C16.1217 3.49805 14.8496 4.02515 13.9118 4.96334L12.8517 6.02343C12.758 6.11719 12.6308 6.16987 12.4982 6.16987C12.3656 6.16987 12.2384 6.11719 12.1446 6.02343L11.0846 4.96343C9.13149 3.0103 5.96484 3.0103 4.01172 4.96343C2.05859 6.91655 2.05859 10.0832 4.01172 12.0363L12.4982 20.5228L20.9846 12.0363C21.9228 11.0986 22.45 9.82636 22.45 8.49987C22.45 7.17338 21.9229 5.90126 20.9847 4.96351C20.0469 4.02532 18.7747 3.49805 17.4482 3.49805Z" fill="#414141"/>
</svg>
