<svg width="100" height="10" viewBox="0 0 100 10" fill="none" xmlns="http://www.w3.org/2000/svg">
<g clip-path="url(#clip0_110_4613)">
<path fill-rule="evenodd" clip-rule="evenodd" d="M18.241 0.369699L10.3876 7.7798C10.1121 8.03969 10.3173 8.46936 10.7168 8.46936H18.4056C18.5311 8.46936 18.6328 8.37799 18.6328 8.26528V0.510401C18.6328 0.326144 18.3824 0.236234 18.241 0.369699ZM8.24523 2.22024L0.391843 9.63034C0.250394 9.76381 0 9.67389 0 9.48964V1.73476C0 1.62205 0.10174 1.53068 0.227242 1.53068H7.91603C8.31554 1.53068 8.52067 1.96035 8.24523 2.22024ZM49.8157 2.41986C49.5623 2.29094 49.2592 2.17979 48.9065 2.07754C48.2954 1.90416 47.3812 1.73078 46.1491 1.73078C43.6003 1.73078 42.6166 2.6377 42.6166 3.74912C42.6166 4.78052 43.2625 5.57185 46.0199 5.83415C47.6694 5.99864 48.0271 6.05199 48.0271 6.37208C48.0271 6.78108 47.2967 6.89667 46 6.89667C45.2101 6.89667 44.5542 6.78552 44.0971 6.66549C43.8239 6.5988 43.5854 6.51878 43.3767 6.43431L42.393 7.71912C42.6265 7.85693 42.9197 7.98141 43.2724 8.09256C43.8736 8.28372 44.7977 8.46155 46.0994 8.46155C48.4643 8.46155 50.1486 7.90139 50.1486 6.37208C50.1486 5.1095 49.135 4.58046 46.4273 4.30928C45.1902 4.18924 44.7381 4.09144 44.7381 3.74912C44.7381 3.41125 45.2895 3.29566 46.2484 3.29566C47.0086 3.29566 47.6495 3.39791 48.1066 3.50016C48.3749 3.55796 48.6183 3.62909 48.832 3.70466L49.8157 2.41986ZM31.7316 2.83775L27.6774 6.71884H31.7316V8.28372H24.2543V7.35457L28.3034 3.47349H24.3536V1.90861H31.7316V2.83775ZM41.9387 8.28372H39.6831L39.0521 7.25232H35.2762L34.6452 8.28372H32.3896L36.2997 1.90861H38.0286L41.9387 8.28372ZM38.1777 5.82081L37.1642 4.16257L36.1506 5.82081H38.1777ZM60.6538 5.09616C60.6538 6.95891 59.1136 8.46155 55.755 8.46155C52.3964 8.46155 50.8563 6.95891 50.8563 5.09616C50.8563 3.23342 52.3964 1.73078 55.755 1.73078C59.1136 1.73078 60.6538 3.23342 60.6538 5.09616ZM52.9777 5.09616C52.9777 6.00308 53.5739 6.89667 55.755 6.89667C57.9361 6.89667 58.5323 6.00308 58.5323 5.09616C58.5323 4.18924 57.9361 3.29566 55.755 3.29566C53.5739 3.29566 52.9777 4.18924 52.9777 5.09616ZM62.9662 1.90861H60.7106L64.5213 8.28372H66.2503L70.061 1.90861H67.8054L65.3858 6.02976L62.9662 1.90861ZM76.8698 2.07754C77.2225 2.17979 77.5256 2.29094 77.779 2.41986L76.7953 3.70466C76.5816 3.62909 76.3382 3.55796 76.0699 3.50016C75.6128 3.39791 74.9719 3.29566 74.2117 3.29566C73.2529 3.29566 72.7014 3.41125 72.7014 3.74912C72.7014 4.09144 73.1535 4.18924 74.3906 4.30928C77.0983 4.58046 78.1119 5.1095 78.1119 6.37208C78.1119 7.90139 76.4276 8.46155 74.0627 8.46155C72.761 8.46155 71.8369 8.28372 71.2357 8.09256C70.883 7.98141 70.5898 7.85693 70.3563 7.71912L71.3401 6.43431C71.5487 6.51878 71.7872 6.5988 72.0605 6.66549C72.5175 6.78552 73.1734 6.89667 73.9633 6.89667C75.2601 6.89667 75.9904 6.78108 75.9904 6.37208C75.9904 6.05199 75.6327 5.99864 73.9832 5.83415C71.2258 5.57185 70.5799 4.78052 70.5799 3.74912C70.5799 2.6377 71.5636 1.73078 74.1124 1.73078C75.3445 1.73078 76.2587 1.90416 76.8698 2.07754ZM81.1199 4.27816V1.90861H79.0183V8.28372H81.1199V6.30984L81.8999 5.7319L84.553 8.28372H87.1216L83.3507 4.66049L87.072 1.90861H84.3245L81.1199 4.27816ZM89.9806 8.28372H87.879V1.90861H89.9806V8.28372ZM93.2172 1.90861H90.738L94.3152 5.75412V8.28372H96.4217V5.75412L99.9989 1.90861H97.5197L95.3685 4.22925L93.2172 1.90861Z" fill="#414141"/>
</g>
<defs>
<clipPath id="clip0_110_4613">
<rect width="100" height="10" fill="white"/>
</clipPath>
</defs>
</svg>
