<svg width="1440" height="200" viewBox="0 0 1440 200" fill="none" xmlns="http://www.w3.org/2000/svg">
<g style="mix-blend-mode:multiply" opacity="0.3">
<path d="M13.0389 19.9928L-15.1962 -5.32402C-15.7877 -5.85444 -16.7229 -5.78341 -17.2022 -5.13963C-22.9205 2.48512 -21.3687 13.914 -13.3916 21.0667C-5.41454 28.2193 6.11298 28.5226 13.0735 22.007C13.6588 21.4582 13.6304 20.5232 13.0389 19.9928Z" fill="#FF6633"/>
<path d="M159.221 192.796L187.456 218.113C188.047 218.643 188.983 218.572 189.462 217.928C195.18 210.303 193.629 198.875 185.651 191.722C177.674 184.569 166.147 184.266 159.186 190.782C158.601 191.33 158.629 192.265 159.221 192.796Z" fill="#FF6633"/>
<path d="M191.079 69.1121L161.715 45.114C161.1 44.6112 160.169 44.7249 159.719 45.39C154.356 53.2684 156.429 64.6143 164.725 71.3944C173.021 78.1745 184.551 77.9499 191.206 71.1227C191.765 70.5476 191.694 69.6149 191.079 69.1121Z" fill="#FF6633"/>
<path d="M0.596661 152.597L27.3053 125.675C27.8648 125.111 27.8411 124.174 27.2223 123.662C19.8956 117.567 8.40297 118.54 0.857125 126.146C-6.68872 133.753 -7.57298 145.25 -1.41676 152.531C-0.898169 153.143 0.0370765 153.162 0.596661 152.597Z" fill="#FF6633"/>
<path d="M-5.08468 91.3231C-10.6525 91.9145 -16.1277 83.3394 -17.3139 72.1702C-18.5001 61.001 -14.9481 51.4672 -9.38029 50.8759C-3.81245 50.2845 1.66278 58.8596 2.84898 70.0288C4.03518 81.198 0.483157 90.7318 -5.08468 91.3231Z" fill="#FCA21C"/>
<path d="M180.571 110.581C186.139 109.99 191.614 118.565 192.8 129.734C193.986 140.903 190.434 150.437 184.867 151.028C179.299 151.62 173.824 143.045 172.637 131.875C171.451 120.706 175.003 111.172 180.571 110.581Z" fill="#FCA21C"/>
<path d="M119.855 4.90633C123.476 7.509 121.097 17.0123 114.541 26.1326C107.985 35.2529 99.7353 40.5364 96.1145 37.9337C92.4938 35.3311 94.8732 25.8278 101.429 16.7075C107.985 7.58721 116.235 2.30366 119.855 4.90633Z" fill="#FCA21C"/>
<path d="M65.9774 159.895C61.5445 159.412 58.9367 149.969 60.1526 138.803C61.3685 127.637 65.9478 118.977 70.3807 119.459C74.8136 119.942 77.4215 129.385 76.2056 140.551C74.9896 151.717 70.4103 160.378 65.9774 159.895Z" fill="#FCA21C"/>
<path fill-rule="evenodd" clip-rule="evenodd" d="M68.3295 64.6267C70.1844 67.2203 69.5838 70.8214 66.9882 72.6701C61.1432 76.8331 53.2771 78.0691 45.827 75.6485C38.3768 73.2278 32.7409 67.6035 30.4589 60.8017C29.4452 57.7805 31.0757 54.514 34.1007 53.5057C37.1256 52.4973 40.3995 54.1291 41.4131 57.1502C42.49 60.3598 45.2994 63.352 49.3904 64.6812C53.4828 66.0109 57.5143 65.2416 60.2713 63.278C62.8669 61.4293 66.4747 62.0332 68.3295 64.6267Z" fill="#70C05B"/>
<path fill-rule="evenodd" clip-rule="evenodd" d="M110.577 135.599C108.722 133.006 109.322 129.405 111.918 127.556C117.763 123.393 125.629 122.157 133.079 124.578C140.529 126.998 146.165 132.623 148.447 139.424C149.461 142.446 147.831 145.712 144.806 146.72C141.781 147.729 138.507 146.097 137.493 143.076C136.416 139.866 133.607 136.874 129.516 135.545C125.423 134.215 121.392 134.984 118.635 136.948C116.039 138.797 112.432 138.193 110.577 135.599Z" fill="#70C05B"/>
<path fill-rule="evenodd" clip-rule="evenodd" d="M168.272 -0.775651C167.762 -3.92321 169.9 -6.8828 173.047 -7.38606C180.133 -8.51938 187.729 -6.13258 193.329 -0.654445C198.928 4.82377 201.479 12.3662 200.502 19.4738C200.068 22.6308 197.156 24.8331 193.998 24.3928C190.84 23.9524 188.632 21.0362 189.066 17.8793C189.527 14.5253 188.339 10.5966 185.264 7.58844C182.189 4.57929 178.235 3.4777 174.893 4.01226C171.746 4.51553 168.782 2.37191 168.272 -0.775651Z" fill="#70C05B"/>
<path fill-rule="evenodd" clip-rule="evenodd" d="M78.698 200.053C80.9525 202.308 80.9498 205.958 78.6919 208.207C73.6074 213.271 66.0499 215.778 58.304 214.61C50.5579 213.442 44.0772 208.817 40.7122 202.48C39.2176 199.666 40.2912 196.177 43.1102 194.687C45.9292 193.197 49.426 194.27 50.9207 197.085C52.5085 200.075 55.77 202.566 60.0235 203.208C64.2783 203.849 68.1294 202.43 70.5277 200.042C72.7856 197.793 76.4436 197.798 78.698 200.053Z" fill="#70C05B"/>
<path d="M44.7235 3.95806C43.2204 1.71707 43.8186 -1.3181 46.0596 -2.82118L69.797 -18.7424C72.0379 -20.2455 75.0731 -19.6473 76.5762 -17.4063L81.2709 -10.4068C82.774 -8.16583 82.1758 -5.13066 79.9348 -3.62758L56.1975 12.2936C53.9565 13.7967 50.9213 13.1985 49.4182 10.9575L44.7235 3.95806Z" fill="#1CB9FC"/>
<path d="M98.3576 177.491C97.782 174.854 99.4526 172.251 102.089 171.675L130.013 165.579C132.65 165.003 135.253 166.674 135.829 169.31L137.627 177.544C138.202 180.18 136.532 182.784 133.895 183.36L105.971 189.456C103.335 190.032 100.731 188.361 100.155 185.725L98.3576 177.491Z" fill="#1CB9FC"/>
<path d="M126.497 99.1413C124.483 100.937 121.394 100.761 119.598 98.7474L100.572 77.4177C98.7761 75.404 98.9525 72.3155 100.966 70.5193L107.256 64.909C109.269 63.1128 112.358 63.2892 114.154 65.3029L133.18 86.6326C134.976 88.6463 134.8 91.7348 132.786 93.531L126.497 99.1413Z" fill="#1CB9FC"/>
<path d="M-6.34179 173.558C-3.68231 173.102 -1.15628 174.887 -0.69975 177.547L4.13596 205.717C4.59249 208.377 2.80664 210.903 0.147154 211.359L-8.15945 212.785C-10.8189 213.242 -13.345 211.456 -13.8015 208.796L-18.6372 180.626C-19.0937 177.967 -17.3079 175.441 -14.6484 174.984L-6.34179 173.558Z" fill="#1CB9FC"/>
<path d="M265.039 19.9928L236.804 -5.32402C236.212 -5.85444 235.277 -5.78341 234.798 -5.13963C229.079 2.48512 230.631 13.914 238.608 21.0667C246.585 28.2193 258.113 28.5226 265.074 22.007C265.659 21.4582 265.63 20.5232 265.039 19.9928Z" fill="#FF6633"/>
<path d="M411.221 192.796L439.456 218.113C440.047 218.643 440.983 218.572 441.462 217.928C447.18 210.303 445.629 198.875 437.651 191.722C429.674 184.569 418.147 184.266 411.186 190.782C410.601 191.33 410.629 192.265 411.221 192.796Z" fill="#FF6633"/>
<path d="M443.079 69.1121L413.715 45.114C413.1 44.6112 412.169 44.7249 411.719 45.39C406.356 53.2684 408.429 64.6143 416.725 71.3944C425.021 78.1745 436.551 77.9499 443.206 71.1227C443.765 70.5476 443.694 69.6149 443.079 69.1121Z" fill="#FF6633"/>
<path d="M252.597 152.597L279.305 125.675C279.865 125.111 279.841 124.174 279.222 123.662C271.896 117.567 260.403 118.54 252.857 126.146C245.311 133.753 244.427 145.25 250.583 152.531C251.102 153.143 252.037 153.162 252.597 152.597Z" fill="#FF6633"/>
<path d="M246.915 91.3231C241.347 91.9145 235.872 83.3394 234.686 72.1702C233.5 61.001 237.052 51.4672 242.62 50.8759C248.188 50.2845 253.663 58.8596 254.849 70.0288C256.035 81.198 252.483 90.7318 246.915 91.3231Z" fill="#FCA21C"/>
<path d="M432.571 110.581C438.139 109.99 443.614 118.565 444.8 129.734C445.986 140.903 442.434 150.437 436.867 151.028C431.299 151.62 425.824 143.045 424.637 131.875C423.451 120.706 427.003 111.172 432.571 110.581Z" fill="#FCA21C"/>
<path d="M371.855 4.90633C375.476 7.509 373.097 17.0123 366.541 26.1326C359.985 35.2529 351.735 40.5364 348.115 37.9337C344.494 35.3311 346.873 25.8278 353.429 16.7075C359.985 7.58721 368.235 2.30366 371.855 4.90633Z" fill="#FCA21C"/>
<path d="M317.977 159.895C313.545 159.412 310.937 149.969 312.153 138.803C313.369 127.637 317.948 118.977 322.381 119.459C326.814 119.942 329.422 129.385 328.206 140.551C326.99 151.717 322.41 160.378 317.977 159.895Z" fill="#FCA21C"/>
<path fill-rule="evenodd" clip-rule="evenodd" d="M320.33 64.6267C322.184 67.2203 321.584 70.8214 318.988 72.6701C313.143 76.8331 305.277 78.0691 297.827 75.6485C290.377 73.2278 284.741 67.6035 282.459 60.8017C281.445 57.7805 283.076 54.514 286.101 53.5057C289.126 52.4973 292.399 54.1291 293.413 57.1502C294.49 60.3598 297.299 63.352 301.39 64.6812C305.483 66.0109 309.514 65.2416 312.271 63.278C314.867 61.4293 318.475 62.0332 320.33 64.6267Z" fill="#70C05B"/>
<path fill-rule="evenodd" clip-rule="evenodd" d="M362.577 135.599C360.722 133.006 361.322 129.405 363.918 127.556C369.763 123.393 377.629 122.157 385.079 124.578C392.529 126.998 398.165 132.623 400.447 139.424C401.461 142.446 399.831 145.712 396.806 146.72C393.781 147.729 390.507 146.097 389.493 143.076C388.416 139.866 385.607 136.874 381.516 135.545C377.423 134.215 373.392 134.984 370.635 136.948C368.039 138.797 364.432 138.193 362.577 135.599Z" fill="#70C05B"/>
<path fill-rule="evenodd" clip-rule="evenodd" d="M420.272 -0.775651C419.762 -3.92321 421.9 -6.8828 425.047 -7.38606C432.133 -8.51938 439.729 -6.13258 445.329 -0.654445C450.928 4.82377 453.479 12.3662 452.502 19.4738C452.068 22.6308 449.156 24.8331 445.998 24.3928C442.84 23.9524 440.632 21.0362 441.066 17.8793C441.527 14.5253 440.339 10.5966 437.264 7.58844C434.189 4.57929 430.235 3.4777 426.893 4.01226C423.746 4.51553 420.782 2.37191 420.272 -0.775651Z" fill="#70C05B"/>
<path fill-rule="evenodd" clip-rule="evenodd" d="M330.698 200.053C332.953 202.308 332.95 205.958 330.692 208.207C325.607 213.271 318.05 215.778 310.304 214.61C302.558 213.442 296.077 208.817 292.712 202.48C291.218 199.666 292.291 196.177 295.11 194.687C297.929 193.197 301.426 194.27 302.921 197.085C304.509 200.075 307.77 202.566 312.023 203.208C316.278 203.849 320.129 202.43 322.528 200.042C324.786 197.793 328.444 197.798 330.698 200.053Z" fill="#70C05B"/>
<path d="M296.724 3.95806C295.22 1.71707 295.819 -1.3181 298.06 -2.82118L321.797 -18.7424C324.038 -20.2455 327.073 -19.6473 328.576 -17.4063L333.271 -10.4068C334.774 -8.16583 334.176 -5.13066 331.935 -3.62758L308.197 12.2936C305.956 13.7967 302.921 13.1985 301.418 10.9575L296.724 3.95806Z" fill="#1CB9FC"/>
<path d="M350.358 177.491C349.782 174.854 351.453 172.251 354.089 171.675L382.013 165.579C384.65 165.003 387.253 166.674 387.829 169.31L389.627 177.544C390.202 180.18 388.532 182.784 385.895 183.36L357.971 189.456C355.335 190.032 352.731 188.361 352.155 185.725L350.358 177.491Z" fill="#1CB9FC"/>
<path d="M378.497 99.1413C376.483 100.937 373.394 100.761 371.598 98.7474L352.572 77.4177C350.776 75.404 350.952 72.3155 352.966 70.5193L359.256 64.909C361.269 63.1128 364.358 63.2892 366.154 65.3029L385.18 86.6326C386.976 88.6463 386.8 91.7348 384.786 93.531L378.497 99.1413Z" fill="#1CB9FC"/>
<path d="M245.658 173.558C248.318 173.102 250.844 174.887 251.3 177.547L256.136 205.717C256.592 208.377 254.807 210.903 252.147 211.359L243.841 212.785C241.181 213.242 238.655 211.456 238.199 208.796L233.363 180.626C232.906 177.967 234.692 175.441 237.352 174.984L245.658 173.558Z" fill="#1CB9FC"/>
<path d="M517.039 19.9928L488.804 -5.32402C488.212 -5.85444 487.277 -5.78341 486.798 -5.13963C481.079 2.48512 482.631 13.914 490.608 21.0667C498.585 28.2193 510.113 28.5226 517.074 22.007C517.659 21.4582 517.63 20.5232 517.039 19.9928Z" fill="#FF6633"/>
<path d="M663.221 192.796L691.456 218.113C692.047 218.643 692.983 218.572 693.462 217.928C699.18 210.303 697.629 198.875 689.651 191.722C681.674 184.569 670.147 184.266 663.186 190.782C662.601 191.33 662.629 192.265 663.221 192.796Z" fill="#FF6633"/>
<path d="M695.079 69.1121L665.715 45.114C665.1 44.6112 664.169 44.7249 663.719 45.39C658.356 53.2684 660.429 64.6143 668.725 71.3944C677.021 78.1745 688.551 77.9499 695.206 71.1227C695.765 70.5476 695.694 69.6149 695.079 69.1121Z" fill="#FF6633"/>
<path d="M504.597 152.597L531.305 125.675C531.865 125.111 531.841 124.174 531.222 123.662C523.896 117.567 512.403 118.54 504.857 126.146C497.311 133.753 496.427 145.25 502.583 152.531C503.102 153.143 504.037 153.162 504.597 152.597Z" fill="#FF6633"/>
<path d="M498.915 91.3231C493.347 91.9145 487.872 83.3394 486.686 72.1702C485.5 61.001 489.052 51.4672 494.62 50.8759C500.188 50.2845 505.663 58.8596 506.849 70.0288C508.035 81.198 504.483 90.7318 498.915 91.3231Z" fill="#FCA21C"/>
<path d="M684.571 110.581C690.139 109.99 695.614 118.565 696.8 129.734C697.986 140.903 694.434 150.437 688.867 151.028C683.299 151.62 677.824 143.045 676.637 131.875C675.451 120.706 679.003 111.172 684.571 110.581Z" fill="#FCA21C"/>
<path d="M623.855 4.90633C627.476 7.509 625.097 17.0123 618.541 26.1326C611.985 35.2529 603.735 40.5364 600.115 37.9337C596.494 35.3311 598.873 25.8278 605.429 16.7075C611.985 7.58721 620.235 2.30366 623.855 4.90633Z" fill="#FCA21C"/>
<path d="M569.977 159.895C565.545 159.412 562.937 149.969 564.153 138.803C565.369 127.637 569.948 118.977 574.381 119.459C578.814 119.942 581.422 129.385 580.206 140.551C578.99 151.717 574.41 160.378 569.977 159.895Z" fill="#FCA21C"/>
<path fill-rule="evenodd" clip-rule="evenodd" d="M572.33 64.6267C574.184 67.2203 573.584 70.8214 570.988 72.6701C565.143 76.8331 557.277 78.0691 549.827 75.6485C542.377 73.2278 536.741 67.6035 534.459 60.8017C533.445 57.7805 535.076 54.514 538.101 53.5057C541.126 52.4973 544.399 54.1291 545.413 57.1502C546.49 60.3598 549.299 63.352 553.39 64.6812C557.483 66.0109 561.514 65.2416 564.271 63.278C566.867 61.4293 570.475 62.0332 572.33 64.6267Z" fill="#70C05B"/>
<path fill-rule="evenodd" clip-rule="evenodd" d="M614.577 135.599C612.722 133.006 613.322 129.405 615.918 127.556C621.763 123.393 629.629 122.157 637.079 124.578C644.529 126.998 650.165 132.623 652.447 139.424C653.461 142.446 651.831 145.712 648.806 146.72C645.781 147.729 642.507 146.097 641.493 143.076C640.416 139.866 637.607 136.874 633.516 135.545C629.423 134.215 625.392 134.984 622.635 136.948C620.039 138.797 616.432 138.193 614.577 135.599Z" fill="#70C05B"/>
<path fill-rule="evenodd" clip-rule="evenodd" d="M672.272 -0.775651C671.762 -3.92321 673.9 -6.8828 677.047 -7.38606C684.133 -8.51938 691.729 -6.13258 697.329 -0.654445C702.928 4.82377 705.479 12.3662 704.502 19.4738C704.068 22.6308 701.156 24.8331 697.998 24.3928C694.84 23.9524 692.632 21.0362 693.066 17.8793C693.527 14.5253 692.339 10.5966 689.264 7.58844C686.189 4.57929 682.235 3.4777 678.893 4.01226C675.746 4.51553 672.782 2.37191 672.272 -0.775651Z" fill="#70C05B"/>
<path fill-rule="evenodd" clip-rule="evenodd" d="M582.698 200.053C584.953 202.308 584.95 205.958 582.692 208.207C577.607 213.271 570.05 215.778 562.304 214.61C554.558 213.442 548.077 208.817 544.712 202.48C543.218 199.666 544.291 196.177 547.11 194.687C549.929 193.197 553.426 194.27 554.921 197.085C556.509 200.075 559.77 202.566 564.023 203.208C568.278 203.849 572.129 202.43 574.528 200.042C576.786 197.793 580.444 197.798 582.698 200.053Z" fill="#70C05B"/>
<path d="M548.724 3.95806C547.22 1.71707 547.819 -1.3181 550.06 -2.82118L573.797 -18.7424C576.038 -20.2455 579.073 -19.6473 580.576 -17.4063L585.271 -10.4068C586.774 -8.16583 586.176 -5.13066 583.935 -3.62758L560.197 12.2936C557.956 13.7967 554.921 13.1985 553.418 10.9575L548.724 3.95806Z" fill="#1CB9FC"/>
<path d="M602.358 177.491C601.782 174.854 603.453 172.251 606.089 171.675L634.013 165.579C636.65 165.003 639.253 166.674 639.829 169.31L641.627 177.544C642.202 180.18 640.532 182.784 637.895 183.36L609.971 189.456C607.335 190.032 604.731 188.361 604.155 185.725L602.358 177.491Z" fill="#1CB9FC"/>
<path d="M630.497 99.1413C628.483 100.937 625.394 100.761 623.598 98.7474L604.572 77.4177C602.776 75.404 602.952 72.3155 604.966 70.5193L611.256 64.909C613.269 63.1128 616.358 63.2892 618.154 65.3029L637.18 86.6326C638.976 88.6463 638.8 91.7348 636.786 93.531L630.497 99.1413Z" fill="#1CB9FC"/>
<path d="M497.658 173.558C500.318 173.102 502.844 174.887 503.3 177.547L508.136 205.717C508.592 208.377 506.807 210.903 504.147 211.359L495.841 212.785C493.181 213.242 490.655 211.456 490.199 208.796L485.363 180.626C484.906 177.967 486.692 175.441 489.352 174.984L497.658 173.558Z" fill="#1CB9FC"/>
<path d="M769.039 19.9928L740.804 -5.32402C740.212 -5.85444 739.277 -5.78341 738.798 -5.13963C733.079 2.48512 734.631 13.914 742.608 21.0667C750.585 28.2193 762.113 28.5226 769.074 22.007C769.659 21.4582 769.63 20.5232 769.039 19.9928Z" fill="#FF6633"/>
<path d="M915.221 192.796L943.456 218.113C944.047 218.643 944.983 218.572 945.462 217.928C951.18 210.303 949.629 198.875 941.651 191.722C933.674 184.569 922.147 184.266 915.186 190.782C914.601 191.33 914.629 192.265 915.221 192.796Z" fill="#FF6633"/>
<path d="M947.079 69.1121L917.715 45.114C917.1 44.6112 916.169 44.7249 915.719 45.39C910.356 53.2684 912.429 64.6143 920.725 71.3944C929.021 78.1745 940.551 77.9499 947.206 71.1227C947.765 70.5476 947.694 69.6149 947.079 69.1121Z" fill="#FF6633"/>
<path d="M756.597 152.597L783.305 125.675C783.865 125.111 783.841 124.174 783.222 123.662C775.896 117.567 764.403 118.54 756.857 126.146C749.311 133.753 748.427 145.25 754.583 152.531C755.102 153.143 756.037 153.162 756.597 152.597Z" fill="#FF6633"/>
<path d="M750.915 91.3231C745.347 91.9145 739.872 83.3394 738.686 72.1702C737.5 61.001 741.052 51.4672 746.62 50.8759C752.188 50.2845 757.663 58.8596 758.849 70.0288C760.035 81.198 756.483 90.7318 750.915 91.3231Z" fill="#FCA21C"/>
<path d="M936.571 110.581C942.139 109.99 947.614 118.565 948.8 129.734C949.986 140.903 946.434 150.437 940.867 151.028C935.299 151.62 929.824 143.045 928.637 131.875C927.451 120.706 931.003 111.172 936.571 110.581Z" fill="#FCA21C"/>
<path d="M875.855 4.90633C879.476 7.509 877.097 17.0123 870.541 26.1326C863.985 35.2529 855.735 40.5364 852.115 37.9337C848.494 35.3311 850.873 25.8278 857.429 16.7075C863.985 7.58721 872.235 2.30366 875.855 4.90633Z" fill="#FCA21C"/>
<path d="M821.977 159.895C817.545 159.412 814.937 149.969 816.153 138.803C817.369 127.637 821.948 118.977 826.381 119.459C830.814 119.942 833.422 129.385 832.206 140.551C830.99 151.717 826.41 160.378 821.977 159.895Z" fill="#FCA21C"/>
<path fill-rule="evenodd" clip-rule="evenodd" d="M824.33 64.6267C826.184 67.2203 825.584 70.8214 822.988 72.6701C817.143 76.8331 809.277 78.0691 801.827 75.6485C794.377 73.2278 788.741 67.6035 786.459 60.8017C785.445 57.7805 787.076 54.514 790.101 53.5057C793.126 52.4973 796.399 54.1291 797.413 57.1502C798.49 60.3598 801.299 63.352 805.39 64.6812C809.483 66.0109 813.514 65.2416 816.271 63.278C818.867 61.4293 822.475 62.0332 824.33 64.6267Z" fill="#70C05B"/>
<path fill-rule="evenodd" clip-rule="evenodd" d="M866.577 135.599C864.722 133.006 865.322 129.405 867.918 127.556C873.763 123.393 881.629 122.157 889.079 124.578C896.529 126.998 902.165 132.623 904.447 139.424C905.461 142.446 903.831 145.712 900.806 146.72C897.781 147.729 894.507 146.097 893.493 143.076C892.416 139.866 889.607 136.874 885.516 135.545C881.423 134.215 877.392 134.984 874.635 136.948C872.039 138.797 868.432 138.193 866.577 135.599Z" fill="#70C05B"/>
<path fill-rule="evenodd" clip-rule="evenodd" d="M924.272 -0.775651C923.762 -3.92321 925.9 -6.8828 929.047 -7.38606C936.133 -8.51938 943.729 -6.13258 949.329 -0.654445C954.928 4.82377 957.479 12.3662 956.502 19.4738C956.068 22.6308 953.156 24.8331 949.998 24.3928C946.84 23.9524 944.632 21.0362 945.066 17.8793C945.527 14.5253 944.339 10.5966 941.264 7.58844C938.189 4.57929 934.235 3.4777 930.893 4.01226C927.746 4.51553 924.782 2.37191 924.272 -0.775651Z" fill="#70C05B"/>
<path fill-rule="evenodd" clip-rule="evenodd" d="M834.698 200.053C836.953 202.308 836.95 205.958 834.692 208.207C829.607 213.271 822.05 215.778 814.304 214.61C806.558 213.442 800.077 208.817 796.712 202.48C795.218 199.666 796.291 196.177 799.11 194.687C801.929 193.197 805.426 194.27 806.921 197.085C808.509 200.075 811.77 202.566 816.023 203.208C820.278 203.849 824.129 202.43 826.528 200.042C828.786 197.793 832.444 197.798 834.698 200.053Z" fill="#70C05B"/>
<path d="M800.724 3.95806C799.22 1.71707 799.819 -1.3181 802.06 -2.82118L825.797 -18.7424C828.038 -20.2455 831.073 -19.6473 832.576 -17.4063L837.271 -10.4068C838.774 -8.16583 838.176 -5.13066 835.935 -3.62758L812.197 12.2936C809.956 13.7967 806.921 13.1985 805.418 10.9575L800.724 3.95806Z" fill="#1CB9FC"/>
<path d="M854.358 177.491C853.782 174.854 855.453 172.251 858.089 171.675L886.013 165.579C888.65 165.003 891.253 166.674 891.829 169.31L893.627 177.544C894.202 180.18 892.532 182.784 889.895 183.36L861.971 189.456C859.335 190.032 856.731 188.361 856.155 185.725L854.358 177.491Z" fill="#1CB9FC"/>
<path d="M882.497 99.1413C880.483 100.937 877.394 100.761 875.598 98.7474L856.572 77.4177C854.776 75.404 854.952 72.3155 856.966 70.5193L863.256 64.909C865.269 63.1128 868.358 63.2892 870.154 65.3029L889.18 86.6326C890.976 88.6463 890.8 91.7348 888.786 93.531L882.497 99.1413Z" fill="#1CB9FC"/>
<path d="M749.658 173.558C752.318 173.102 754.844 174.887 755.3 177.547L760.136 205.717C760.592 208.377 758.807 210.903 756.147 211.359L747.841 212.785C745.181 213.242 742.655 211.456 742.199 208.796L737.363 180.626C736.906 177.967 738.692 175.441 741.352 174.984L749.658 173.558Z" fill="#1CB9FC"/>
<path d="M1021.04 19.9928L992.804 -5.32402C992.212 -5.85444 991.277 -5.78341 990.798 -5.13963C985.079 2.48512 986.631 13.914 994.608 21.0667C1002.59 28.2193 1014.11 28.5226 1021.07 22.007C1021.66 21.4582 1021.63 20.5232 1021.04 19.9928Z" fill="#FF6633"/>
<path d="M1167.22 192.796L1195.46 218.113C1196.05 218.643 1196.98 218.572 1197.46 217.928C1203.18 210.303 1201.63 198.875 1193.65 191.722C1185.67 184.569 1174.15 184.266 1167.19 190.782C1166.6 191.33 1166.63 192.265 1167.22 192.796Z" fill="#FF6633"/>
<path d="M1199.08 69.1121L1169.71 45.114C1169.1 44.6112 1168.17 44.7249 1167.72 45.39C1162.36 53.2684 1164.43 64.6143 1172.73 71.3944C1181.02 78.1745 1192.55 77.9499 1199.21 71.1227C1199.77 70.5476 1199.69 69.6149 1199.08 69.1121Z" fill="#FF6633"/>
<path d="M1008.6 152.597L1035.31 125.675C1035.86 125.111 1035.84 124.174 1035.22 123.662C1027.9 117.567 1016.4 118.54 1008.86 126.146C1001.31 133.753 1000.43 145.25 1006.58 152.531C1007.1 153.143 1008.04 153.162 1008.6 152.597Z" fill="#FF6633"/>
<path d="M1002.92 91.3231C997.347 91.9145 991.872 83.3394 990.686 72.1702C989.5 61.001 993.052 51.4672 998.62 50.8759C1004.19 50.2845 1009.66 58.8596 1010.85 70.0288C1012.04 81.198 1008.48 90.7318 1002.92 91.3231Z" fill="#FCA21C"/>
<path d="M1188.57 110.581C1194.14 109.99 1199.61 118.565 1200.8 129.734C1201.99 140.903 1198.43 150.437 1192.87 151.028C1187.3 151.62 1181.82 143.045 1180.64 131.875C1179.45 120.706 1183 111.172 1188.57 110.581Z" fill="#FCA21C"/>
<path d="M1127.86 4.90633C1131.48 7.509 1129.1 17.0123 1122.54 26.1326C1115.99 35.2529 1107.74 40.5364 1104.11 37.9337C1100.49 35.3311 1102.87 25.8278 1109.43 16.7075C1115.98 7.58721 1124.23 2.30366 1127.86 4.90633Z" fill="#FCA21C"/>
<path d="M1073.98 159.895C1069.54 159.412 1066.94 149.969 1068.15 138.803C1069.37 127.637 1073.95 118.977 1078.38 119.459C1082.81 119.942 1085.42 129.385 1084.21 140.551C1082.99 151.717 1078.41 160.378 1073.98 159.895Z" fill="#FCA21C"/>
<path fill-rule="evenodd" clip-rule="evenodd" d="M1076.33 64.6267C1078.18 67.2203 1077.58 70.8214 1074.99 72.6701C1069.14 76.8331 1061.28 78.0691 1053.83 75.6485C1046.38 73.2278 1040.74 67.6035 1038.46 60.8017C1037.45 57.7805 1039.08 54.514 1042.1 53.5057C1045.13 52.4973 1048.4 54.1291 1049.41 57.1502C1050.49 60.3598 1053.3 63.352 1057.39 64.6812C1061.48 66.0109 1065.51 65.2416 1068.27 63.278C1070.87 61.4293 1074.47 62.0332 1076.33 64.6267Z" fill="#70C05B"/>
<path fill-rule="evenodd" clip-rule="evenodd" d="M1118.58 135.599C1116.72 133.006 1117.32 129.405 1119.92 127.556C1125.76 123.393 1133.63 122.157 1141.08 124.578C1148.53 126.998 1154.17 132.623 1156.45 139.424C1157.46 142.446 1155.83 145.712 1152.81 146.72C1149.78 147.729 1146.51 146.097 1145.49 143.076C1144.42 139.866 1141.61 136.874 1137.52 135.545C1133.42 134.215 1129.39 134.984 1126.63 136.948C1124.04 138.797 1120.43 138.193 1118.58 135.599Z" fill="#70C05B"/>
<path fill-rule="evenodd" clip-rule="evenodd" d="M1176.27 -0.775651C1175.76 -3.92321 1177.9 -6.8828 1181.05 -7.38606C1188.13 -8.51938 1195.73 -6.13258 1201.33 -0.654445C1206.93 4.82377 1209.48 12.3662 1208.5 19.4738C1208.07 22.6308 1205.16 24.8331 1202 24.3928C1198.84 23.9524 1196.63 21.0362 1197.07 17.8793C1197.53 14.5253 1196.34 10.5966 1193.26 7.58844C1190.19 4.57929 1186.23 3.4777 1182.89 4.01226C1179.75 4.51553 1176.78 2.37191 1176.27 -0.775651Z" fill="#70C05B"/>
<path fill-rule="evenodd" clip-rule="evenodd" d="M1086.7 200.053C1088.95 202.308 1088.95 205.958 1086.69 208.207C1081.61 213.271 1074.05 215.778 1066.3 214.61C1058.56 213.442 1052.08 208.817 1048.71 202.48C1047.22 199.666 1048.29 196.177 1051.11 194.687C1053.93 193.197 1057.43 194.27 1058.92 197.085C1060.51 200.075 1063.77 202.566 1068.02 203.208C1072.28 203.849 1076.13 202.43 1078.53 200.042C1080.79 197.793 1084.44 197.798 1086.7 200.053Z" fill="#70C05B"/>
<path d="M1052.72 3.95806C1051.22 1.71707 1051.82 -1.3181 1054.06 -2.82118L1077.8 -18.7424C1080.04 -20.2455 1083.07 -19.6473 1084.58 -17.4063L1089.27 -10.4068C1090.77 -8.16583 1090.18 -5.13066 1087.93 -3.62758L1064.2 12.2936C1061.96 13.7967 1058.92 13.1985 1057.42 10.9575L1052.72 3.95806Z" fill="#1CB9FC"/>
<path d="M1106.36 177.491C1105.78 174.854 1107.45 172.251 1110.09 171.675L1138.01 165.579C1140.65 165.003 1143.25 166.674 1143.83 169.31L1145.63 177.544C1146.2 180.18 1144.53 182.784 1141.9 183.36L1113.97 189.456C1111.33 190.032 1108.73 188.361 1108.16 185.725L1106.36 177.491Z" fill="#1CB9FC"/>
<path d="M1134.5 99.1413C1132.48 100.937 1129.39 100.761 1127.6 98.7474L1108.57 77.4177C1106.78 75.404 1106.95 72.3155 1108.97 70.5193L1115.26 64.909C1117.27 63.1128 1120.36 63.2892 1122.15 65.3029L1141.18 86.6326C1142.98 88.6463 1142.8 91.7348 1140.79 93.531L1134.5 99.1413Z" fill="#1CB9FC"/>
<path d="M1001.66 173.558C1004.32 173.102 1006.84 174.887 1007.3 177.547L1012.14 205.717C1012.59 208.377 1010.81 210.903 1008.15 211.359L999.841 212.785C997.181 213.242 994.655 211.456 994.199 208.796L989.363 180.626C988.906 177.967 990.692 175.441 993.352 174.984L1001.66 173.558Z" fill="#1CB9FC"/>
<path d="M1273.04 19.9928L1244.8 -5.32402C1244.21 -5.85444 1243.28 -5.78341 1242.8 -5.13963C1237.08 2.48512 1238.63 13.914 1246.61 21.0667C1254.59 28.2193 1266.11 28.5226 1273.07 22.007C1273.66 21.4582 1273.63 20.5232 1273.04 19.9928Z" fill="#FF6633"/>
<path d="M1419.22 192.796L1447.46 218.113C1448.05 218.643 1448.98 218.572 1449.46 217.928C1455.18 210.303 1453.63 198.875 1445.65 191.722C1437.67 184.569 1426.15 184.266 1419.19 190.782C1418.6 191.33 1418.63 192.265 1419.22 192.796Z" fill="#FF6633"/>
<path d="M1451.08 69.1121L1421.71 45.114C1421.1 44.6112 1420.17 44.7249 1419.72 45.39C1414.36 53.2684 1416.43 64.6143 1424.73 71.3944C1433.02 78.1745 1444.55 77.9499 1451.21 71.1227C1451.77 70.5476 1451.69 69.6149 1451.08 69.1121Z" fill="#FF6633"/>
<path d="M1260.6 152.597L1287.31 125.675C1287.86 125.111 1287.84 124.174 1287.22 123.662C1279.9 117.567 1268.4 118.54 1260.86 126.146C1253.31 133.753 1252.43 145.25 1258.58 152.531C1259.1 153.143 1260.04 153.162 1260.6 152.597Z" fill="#FF6633"/>
<path d="M1254.92 91.3231C1249.35 91.9145 1243.87 83.3394 1242.69 72.1702C1241.5 61.001 1245.05 51.4672 1250.62 50.8759C1256.19 50.2845 1261.66 58.8596 1262.85 70.0288C1264.04 81.198 1260.48 90.7318 1254.92 91.3231Z" fill="#FCA21C"/>
<path d="M1440.57 110.581C1446.14 109.99 1451.61 118.565 1452.8 129.734C1453.99 140.903 1450.43 150.437 1444.87 151.028C1439.3 151.62 1433.82 143.045 1432.64 131.875C1431.45 120.706 1435 111.172 1440.57 110.581Z" fill="#FCA21C"/>
<path d="M1379.86 4.90633C1383.48 7.509 1381.1 17.0123 1374.54 26.1326C1367.99 35.2529 1359.74 40.5364 1356.11 37.9337C1352.49 35.3311 1354.87 25.8278 1361.43 16.7075C1367.98 7.58721 1376.23 2.30366 1379.86 4.90633Z" fill="#FCA21C"/>
<path d="M1325.98 159.895C1321.54 159.412 1318.94 149.969 1320.15 138.803C1321.37 127.637 1325.95 118.977 1330.38 119.459C1334.81 119.942 1337.42 129.385 1336.21 140.551C1334.99 151.717 1330.41 160.378 1325.98 159.895Z" fill="#FCA21C"/>
<path fill-rule="evenodd" clip-rule="evenodd" d="M1328.33 64.6267C1330.18 67.2203 1329.58 70.8214 1326.99 72.6701C1321.14 76.8331 1313.28 78.0691 1305.83 75.6485C1298.38 73.2278 1292.74 67.6035 1290.46 60.8017C1289.45 57.7805 1291.08 54.514 1294.1 53.5057C1297.13 52.4973 1300.4 54.1291 1301.41 57.1502C1302.49 60.3598 1305.3 63.352 1309.39 64.6812C1313.48 66.0109 1317.51 65.2416 1320.27 63.278C1322.87 61.4293 1326.47 62.0332 1328.33 64.6267Z" fill="#70C05B"/>
<path fill-rule="evenodd" clip-rule="evenodd" d="M1370.58 135.599C1368.72 133.006 1369.32 129.405 1371.92 127.556C1377.76 123.393 1385.63 122.157 1393.08 124.578C1400.53 126.998 1406.17 132.623 1408.45 139.424C1409.46 142.446 1407.83 145.712 1404.81 146.72C1401.78 147.729 1398.51 146.097 1397.49 143.076C1396.42 139.866 1393.61 136.874 1389.52 135.545C1385.42 134.215 1381.39 134.984 1378.63 136.948C1376.04 138.797 1372.43 138.193 1370.58 135.599Z" fill="#70C05B"/>
<path fill-rule="evenodd" clip-rule="evenodd" d="M1428.27 -0.775651C1427.76 -3.92321 1429.9 -6.8828 1433.05 -7.38606C1440.13 -8.51938 1447.73 -6.13258 1453.33 -0.654445C1458.93 4.82377 1461.48 12.3662 1460.5 19.4738C1460.07 22.6308 1457.16 24.8331 1454 24.3928C1450.84 23.9524 1448.63 21.0362 1449.07 17.8793C1449.53 14.5253 1448.34 10.5966 1445.26 7.58844C1442.19 4.57929 1438.23 3.4777 1434.89 4.01226C1431.75 4.51553 1428.78 2.37191 1428.27 -0.775651Z" fill="#70C05B"/>
<path fill-rule="evenodd" clip-rule="evenodd" d="M1338.7 200.053C1340.95 202.308 1340.95 205.958 1338.69 208.207C1333.61 213.271 1326.05 215.778 1318.3 214.61C1310.56 213.442 1304.08 208.817 1300.71 202.48C1299.22 199.666 1300.29 196.177 1303.11 194.687C1305.93 193.197 1309.43 194.27 1310.92 197.085C1312.51 200.075 1315.77 202.566 1320.02 203.208C1324.28 203.849 1328.13 202.43 1330.53 200.042C1332.79 197.793 1336.44 197.798 1338.7 200.053Z" fill="#70C05B"/>
<path d="M1304.72 3.95806C1303.22 1.71707 1303.82 -1.3181 1306.06 -2.82118L1329.8 -18.7424C1332.04 -20.2455 1335.07 -19.6473 1336.58 -17.4063L1341.27 -10.4068C1342.77 -8.16583 1342.18 -5.13066 1339.93 -3.62758L1316.2 12.2936C1313.96 13.7967 1310.92 13.1985 1309.42 10.9575L1304.72 3.95806Z" fill="#1CB9FC"/>
<path d="M1358.36 177.491C1357.78 174.854 1359.45 172.251 1362.09 171.675L1390.01 165.579C1392.65 165.003 1395.25 166.674 1395.83 169.31L1397.63 177.544C1398.2 180.18 1396.53 182.784 1393.9 183.36L1365.97 189.456C1363.33 190.032 1360.73 188.361 1360.16 185.725L1358.36 177.491Z" fill="#1CB9FC"/>
<path d="M1386.5 99.1413C1384.48 100.937 1381.39 100.761 1379.6 98.7474L1360.57 77.4177C1358.78 75.404 1358.95 72.3155 1360.97 70.5193L1367.26 64.909C1369.27 63.1128 1372.36 63.2892 1374.15 65.3029L1393.18 86.6326C1394.98 88.6463 1394.8 91.7348 1392.79 93.531L1386.5 99.1413Z" fill="#1CB9FC"/>
<path d="M1253.66 173.558C1256.32 173.102 1258.84 174.887 1259.3 177.547L1264.14 205.717C1264.59 208.377 1262.81 210.903 1260.15 211.359L1251.84 212.785C1249.18 213.242 1246.66 211.456 1246.2 208.796L1241.36 180.626C1240.91 177.967 1242.69 175.441 1245.35 174.984L1253.66 173.558Z" fill="#1CB9FC"/>
</g>
</svg>
